<?xml version="1.0" standalone="no"?>
<!DOCTYPE svg PUBLIC "-//W3C//DTD SVG 20010904//EN"
 "http://www.w3.org/TR/2001/REC-SVG-20010904/DTD/svg10.dtd">
<svg version="1.0" xmlns="http://www.w3.org/2000/svg"
 width="141.000000pt" height="141.000000pt" viewBox="0 0 141.000000 141.000000"
 preserveAspectRatio="xMidYMid meet">

<g transform="translate(0.000000,141.000000) scale(0.100000,-0.100000)"
fill="#000000" stroke="none">
<path d="M0 705 l0 -705 705 0 705 0 0 705 0 705 -705 0 -705 0 0 -705z m849
560 c89 -21 191 -78 260 -144 69 -67 88 -96 66 -105 -8 -3 -17 0 -21 6 -5 7
-2 8 7 3 8 -5 10 -4 6 0 -9 11 -39 16 -33 7 2 -4 -39 -8 -93 -10 -274 -7 -663
-25 -759 -36 -13 -1 -28 -9 -33 -17 -6 -10 -9 -11 -9 -1 0 7 -11 0 -25 -15
l-26 -28 22 45 c68 142 212 257 367 294 76 19 193 19 271 1z"/>
</g>
</svg>
